<?xml version="1.0" standalone="no"?>
<!DOCTYPE svg PUBLIC "-//W3C//DTD SVG 20010904//EN"
 "http://www.w3.org/TR/2001/REC-SVG-20010904/DTD/svg10.dtd">
<svg version="1.0" xmlns="http://www.w3.org/2000/svg"
 width="800.000000pt" height="800.000000pt" viewBox="0 0 800.000000 800.000000"
 preserveAspectRatio="xMidYMid meet">

<g transform="translate(0.000000,800.000000) scale(0.100000,-0.100000)"
fill="#000000" stroke="none">
<path d="M3780 7800 c-714 -37 -1408 -278 -1992 -691 -330 -235 -672 -577
-907 -907 -374 -529 -606 -1144 -676 -1799 -22 -198 -22 -588 0 -786 70 -655
302 -1270 676 -1799 235 -330 577 -672 907 -907 529 -374 1144 -606 1799 -676
198 -22 588 -22 786 0 655 70 1270 302 1799 676 330 235 672 577 907 907 927
1309 927 3075 0 4384 -235 330 -577 672 -907 907 -693 491 -1537 735 -2392
691z m306 -232 c-13 -24 -117 -203 -229 -398 l-205 -355 -38 -7 c-94 -17 -256
-39 -259 -36 -3 2 104 192 236 421 l241 417 139 0 140 0 -25 -42z m387 11 c48
-6 87 -14 87 -17 0 -3 -96 -171 -212 -374 l-213 -370 -125 5 c-69 3 -126 6
-127 6 -2 2 428 745 439 758 5 7 22 10 36 8 15 -2 66 -9 115 -16z m-1022 -246
c-82 -142 -198 -343 -258 -448 l-110 -189 -137 -52 c-75 -28 -136 -49 -136
-47 0 7 541 946 551 957 9 10 140 33 201 35 l37 1 -148 -257z m1412 172 c42
-10 77 -22 77 -27 0 -9 -396 -698 -408 -710 -4 -4 -49 0 -99 10 l-92 17 212
367 c117 203 217 366 222 364 6 -2 45 -11 88 -21z m-1764 -17 c-7 -13 -149
-259 -316 -548 l-303 -525 -54 -32 c-29 -18 -102 -69 -161 -114 -59 -44 -105
-77 -102 -73 3 5 163 284 357 619 193 336 357 615 363 622 9 9 171 61 225 72
1 1 -3 -9 -9 -21z m2123 -94 c40 -14 77 -30 81 -34 7 -6 -365 -671 -393 -703
-9 -10 -180 44 -180 57 0 15 402 706 410 706 5 0 42 -12 82 -26z m-2654 -112
c-212 -374 -2155 -3732 -2159 -3732 -13 0 -29 265 -29 470 1 835 271 1596 804
2264 103 130 392 419 522 522 259 207 538 378 814 500 41 19 76 34 78 34 2 0
-12 -26 -30 -58z m3085 -78 c75 -39 313 -182 326 -197 7 -10 2 -41 -19 -112
-17 -54 -31 -100 -33 -101 -2 -2 -220 277 -320 412 -23 30 -18 30 46 -2z
m-155 -172 c35 -46 62 -87 60 -92 -2 -5 -99 -95 -217 -199 -185 -164 -217
-189 -233 -180 -13 7 -17 16 -13 27 5 14 242 428 298 521 17 28 22 31 31 19 6
-7 39 -51 74 -96z m756 -227 c50 -41 111 -92 135 -113 l44 -38 -229 -206
c-126 -114 -231 -205 -233 -203 -5 5 182 635 188 635 2 0 45 -34 95 -75z
m-526 -71 c18 -23 32 -46 32 -50 0 -9 -304 -297 -319 -302 -5 -1 -36 14 -70
34 l-62 37 23 23 c76 75 354 312 359 306 3 -4 20 -26 37 -48z m-1538 -59 c74
-8 173 -21 219 -29 131 -24 394 -98 415 -117 9 -8 -150 -299 -163 -299 -3 0
-26 16 -50 35 -101 80 -244 125 -401 125 -107 0 -306 -16 -450 -35 -340 -46
-1247 -176 -1260 -180 -26 -9 -63 -72 -56 -97 13 -52 13 -52 187 -49 90 1 167
4 171 7 18 12 88 -18 114 -49 26 -31 27 -34 21 -127 -9 -152 -79 -384 -253
-849 -140 -372 -373 -951 -416 -1033 -87 -167 -159 -214 -390 -252 -117 -20
-145 -28 -160 -46 -14 -17 -15 -26 -7 -41 6 -11 16 -22 22 -25 7 -2 324 -13
705 -23 381 -10 694 -20 696 -22 8 -8 -870 -1528 -883 -1529 -25 0 -335 321
-423 440 -276 370 -430 745 -509 1235 -9 52 -13 176 -13 350 0 297 13 411 73
645 161 632 564 1195 1111 1552 497 325 1119 476 1700 413z m2444 -227 c31
-34 54 -63 52 -65 -2 -2 -158 -114 -347 -248 l-343 -245 -27 33 -27 32 46 41
c26 23 164 148 307 277 143 130 265 236 272 236 6 1 36 -27 67 -61z m-804 16
c0 -3 -21 -75 -47 -160 -41 -137 -48 -153 -62 -141 -9 7 -40 33 -69 56 l-52
43 107 104 c99 95 123 114 123 98z m-709 -62 c684 -352 1182 -984 1359 -1725
57 -238 65 -317 65 -617 -1 -299 -10 -385 -65 -615 -216 -900 -906 -1630
-1795 -1900 -252 -76 -471 -107 -755 -108 -207 0 -314 9 -495 43 -177 34 -285
66 -510 150 -139 53 -522 269 -511 288 39 70 182 320 223 389 l54 92 92 -60
c251 -166 560 -280 872 -325 158 -22 422 -22 580 0 306 44 613 156 855 314
l85 55 190 2 c169 1 198 4 260 24 183 60 347 178 477 342 111 140 176 281 213
457 23 113 21 362 -5 465 -48 190 -110 350 -189 485 -32 55 -41 81 -41 116 0
79 -30 266 -65 402 -149 581 -548 1079 -1087 1359 l-118 61 102 177 c56 97
105 177 108 177 4 0 49 -22 101 -48z m-1164 -206 c126 -34 243 -119 285 -207
54 -115 61 -217 23 -359 -31 -113 -53 -152 -149 -269 -130 -155 -199 -197
-387 -235 -68 -14 -158 -28 -199 -31 -41 -3 -85 -8 -97 -11 -13 -2 -23 0 -23
7 0 9 322 888 399 1092 9 24 16 27 53 27 24 0 67 -7 95 -14z m2953 -91 c0 -16
-79 -686 -85 -720 -4 -22 -23 -43 -75 -83 -39 -29 -70 -47 -70 -40 -1 7 36
220 82 472 l82 459 33 -39 c18 -21 33 -44 33 -49z m-281 -17 c0 -7 -37 -218
-83 -468 l-82 -455 -67 131 c-72 141 -149 269 -228 378 -47 64 -49 69 -32 81
10 7 122 88 248 178 127 91 233 166 238 166 4 1 7 -5 6 -11z m-1781 -227 c149
-75 315 -195 451 -325 128 -123 289 -334 357 -468 l24 -48 -44 0 c-50 0 -61
10 -71 63 -4 20 -11 37 -15 37 -4 0 -15 -21 -25 -46 l-18 -47 -56 6 -56 6 43
-38 43 -37 -21 -53 c-13 -33 -16 -50 -8 -45 7 4 29 18 49 30 l37 23 43 -37 42
-36 -6 31 c-3 17 -9 42 -12 55 -5 21 0 29 35 52 23 15 43 26 45 24 40 -45 175
-438 175 -509 0 -6 -31 18 -69 54 -282 266 -732 529 -1148 672 -8 3 -7 15 6
42 34 71 92 372 107 551 4 45 8 82 11 82 2 0 38 -18 81 -39z m2272 -82 c18
-35 18 -37 -3 -123 -18 -70 -28 -92 -50 -108 -33 -24 -33 -33 -10 161 18 156
18 156 63 70z m233 -499 l35 -95 -93 -423 c-51 -233 -95 -425 -97 -427 -3 -4
-190 23 -195 28 -2 2 253 1057 264 1092 7 23 26 -16 86 -175z m-417 -371 c-46
-189 -89 -368 -96 -398 l-13 -54 -64 99 c-167 258 -195 305 -197 333 -1 26 19
44 224 203 124 96 226 172 228 168 1 -3 -35 -161 -82 -351z m-2363 135 c425
-137 892 -424 1182 -725 196 -203 292 -386 370 -703 36 -146 36 -151 25 -235
-19 -145 -49 -251 -101 -358 -27 -57 -53 -103 -57 -103 -4 0 -20 37 -36 83
-43 123 -139 319 -202 413 -150 224 -381 407 -728 580 -264 131 -567 240 -861
308 l-140 33 -168 304 c-93 167 -171 309 -173 315 -6 14 41 23 356 65 129 17
262 37 295 44 92 20 117 18 238 -21z m-1105 -551 l94 -188 -169 -295 -170
-295 -59 1 c-71 1 -129 26 -149 65 -21 39 -19 148 5 244 31 130 155 480 252
713 l31 74 36 -65 c20 -36 78 -150 129 -254z m4061 143 c25 -140 47 -343 39
-351 -10 -11 -179 18 -175 29 2 6 26 113 53 238 26 125 52 222 56 214 4 -7 16
-65 27 -130z m-6339 -187 c-5 -35 -14 -121 -18 -190 l-8 -126 -314 -544 c-172
-299 -319 -550 -325 -557 -10 -11 -18 9 -40 100 l-27 113 368 637 c203 350
370 635 372 634 2 -2 -2 -32 -8 -67z m5854 -679 c189 -294 341 -536 337 -538
-12 -4 -142 25 -151 34 -4 5 -127 190 -273 411 l-266 402 -7 123 c-4 84 -3
120 4 113 6 -5 166 -251 356 -545z m248 355 c134 -20 253 -38 266 -40 21 -5
22 -10 22 -95 0 -79 -2 -90 -17 -90 -10 0 -108 15 -217 34 l-200 33 -33 49
c-74 108 -93 144 -78 144 8 0 124 -16 257 -35z m-3021 -44 c464 -131 921 -357
1150 -570 78 -72 166 -180 213 -262 l26 -46 -56 -89 c-312 -498 -808 -823
-1385 -908 -140 -21 -408 -21 -548 0 -284 41 -548 141 -789 297 -67 43 -91 64
-87 75 17 46 871 1520 876 1514 4 -4 17 -35 29 -70 21 -57 22 -68 11 -117 -12
-52 -54 -122 -95 -157 -12 -10 -46 -30 -76 -44 -30 -15 -63 -33 -72 -42 -21
-17 -24 -62 -6 -80 16 -16 899 -17 929 -2 11 6 19 21 19 36 0 21 -72 157 -232
442 -16 28 -25 52 -20 52 4 0 55 -13 113 -29z m-3311 -1062 c-144 -250 -265
-458 -269 -462 -7 -7 -91 184 -91 207 0 6 129 234 288 508 l287 499 23 -149
24 -150 -262 -453z m5860 519 c76 -117 137 -214 136 -216 -3 -3 -338 68 -344
73 -1 1 6 44 17 96 10 52 24 131 31 177 7 45 14 82 16 82 3 0 67 -96 144 -212z
m633 183 c59 -10 110 -21 113 -24 7 -6 -25 -271 -35 -300 -6 -15 -34 23 -124
163 -64 99 -117 183 -117 185 0 3 12 2 28 -1 15 -3 75 -13 135 -23z m-6098
-669 c41 -104 46 -126 37 -147 -15 -33 -451 -788 -462 -798 -7 -8 -140 208
-140 227 0 5 367 646 498 870 3 6 9 1 13 -10 4 -10 28 -74 54 -142z m5659 58
c231 -50 422 -92 424 -95 3 -2 -1 -25 -8 -50 -10 -34 -17 -44 -29 -41 -9 3
-208 53 -442 112 l-427 106 11 34 c8 27 14 33 31 29 12 -3 210 -46 440 -95z
m-1214 -244 l39 -117 -57 -44 c-99 -78 -244 -134 -346 -135 -28 0 -26 3 51 83
89 93 181 206 232 285 18 29 35 51 37 49 3 -2 22 -57 44 -121z m835 53 l165
-41 -73 -51 c-39 -27 -179 -121 -310 -209 l-239 -159 40 58 c63 94 150 247
198 348 25 52 47 95 50 95 2 0 79 -19 169 -41z m633 -158 c41 -11 76 -22 79
-24 7 -7 -78 -210 -141 -335 -54 -107 -153 -282 -160 -282 -2 0 0 17 5 38 4
20 35 161 69 312 58 264 69 310 73 310 1 0 35 -9 75 -19z m-367 -391 c-48
-216 -92 -395 -97 -397 -5 -1 -43 3 -84 10 -71 12 -75 15 -72 38 5 45 114 587
121 597 7 12 213 153 217 149 2 -1 -37 -180 -85 -397z m-5336 258 c28 -45 56
-92 64 -103 12 -20 -3 -51 -210 -408 -122 -213 -225 -387 -228 -387 -3 0 -37
41 -74 91 -48 62 -67 95 -62 107 12 32 448 782 454 782 3 -1 29 -37 56 -82z
m4933 -374 c-22 -115 -45 -213 -49 -218 -5 -6 -78 1 -186 17 -98 15 -181 27
-185 27 -13 0 -9 55 5 73 12 16 450 317 454 313 2 -1 -16 -97 -39 -212z
m-4665 5 l59 -69 -212 -368 c-117 -202 -215 -370 -219 -374 -4 -4 -36 21 -71
57 -54 54 -63 68 -54 83 6 9 104 180 219 380 114 199 211 362 214 361 3 0 32
-32 64 -70z m4040 -186 c-2 -16 -37 -279 -78 -586 -40 -308 -75 -560 -77 -561
-2 -1 -32 4 -66 12 -64 14 -64 14 -59 46 3 17 27 239 53 492 l48 461 90 81
c50 45 91 82 92 82 0 0 -1 -12 -3 -27z m-3703 -155 c0 -5 -95 -173 -211 -373
l-211 -365 -36 29 c-21 16 -54 44 -74 63 l-38 33 216 372 216 373 69 -62 c38
-34 69 -66 69 -70z m4260 -84 c201 -31 367 -58 369 -60 5 -4 -35 -57 -85 -111
l-39 -42 -325 52 -325 53 1 24 c4 75 17 140 27 140 7 0 176 -25 377 -56z
m-4043 -68 c71 -49 225 -138 333 -190 52 -26 93 -50 91 -54 -4 -6 -734 -508
-777 -535 -14 -8 -126 71 -122 87 6 22 413 725 420 726 5 0 29 -15 55 -34z
m3089 -68 c-4 -40 -9 -91 -12 -113 l-6 -40 -211 -92 -211 -92 -38 60 c-21 33
-38 64 -38 69 0 6 19 18 43 27 79 31 312 152 387 202 41 27 79 50 84 50 5 1 6
-31 2 -71z m789 -204 c127 -20 234 -40 238 -44 13 -11 -101 -112 -121 -106 -9
2 -102 14 -207 27 -104 12 -192 23 -193 25 -2 1 -1 32 3 68 7 58 10 66 29 66
11 0 125 -16 251 -36z m-3098 -88 c65 -19 144 -39 176 -46 46 -9 57 -15 53
-28 -3 -9 -28 -109 -56 -222 -28 -113 -53 -206 -55 -208 -3 -4 -325 473 -325
482 0 7 72 56 82 56 3 0 60 -15 125 -34z m1703 -141 c56 -91 101 -167 99 -169
-5 -3 -889 197 -886 201 2 1 66 10 142 19 150 17 372 61 470 93 33 10 63 20
66 20 3 1 52 -73 109 -164z m551 -97 c-9 -86 -19 -159 -23 -163 -3 -4 -40 1
-82 10 l-75 17 -50 81 c-28 44 -49 82 -48 84 4 4 292 131 293 129 1 0 -6 -72
-15 -158z m-1703 136 c4 -3 -166 -786 -172 -791 -1 -2 -28 35 -59 82 l-57 85
70 283 c39 155 75 299 81 319 l10 38 62 -7 c34 -3 64 -7 65 -9z m-648 -430
c146 -217 266 -399 268 -403 1 -5 -10 -6 -25 -4 -46 8 -306 71 -331 80 -13 5
-98 117 -217 288 -158 229 -192 282 -181 293 20 21 200 141 211 141 6 0 129
-178 275 -395z m3018 314 c56 -6 102 -15 102 -19 0 -13 -257 -196 -264 -188
-3 2 2 49 9 104 8 55 15 103 15 108 0 10 18 9 138 -5z m-1374 -234 c452 -102
822 -187 825 -189 7 -7 -151 -77 -184 -81 -27 -4 -1466 374 -1481 389 -7 7 5
67 14 67 3 0 375 -84 826 -186z m-2187 -112 c60 -86 113 -163 117 -170 5 -9
-5 -8 -36 4 -60 23 -359 169 -381 186 -17 13 -11 19 80 80 54 36 101 64 105
62 3 -2 55 -75 115 -162z m1900 -119 c326 -87 589 -161 585 -164 -4 -4 -43
-16 -87 -28 l-80 -21 -515 111 c-283 61 -519 115 -524 119 -9 9 13 140 23 140
3 0 272 -71 598 -157z m-367 -239 c263 -56 273 -59 220 -66 -30 -3 -166 -6
-302 -7 -282 -1 -259 -10 -236 89 9 38 16 50 27 47 9 -2 140 -30 291 -63z"/>
<path d="M5649 5930 l-25 -65 -66 0 -66 0 49 -45 50 -45 -25 -60 c-13 -33 -23
-61 -21 -63 2 -2 27 12 56 32 59 40 50 42 127 -28 17 -17 32 -28 32 -25 0 2
-7 29 -15 59 -8 30 -15 61 -15 67 0 7 23 28 51 47 l52 35 -34 5 c-19 3 -47 7
-63 8 -28 3 -30 7 -45 73 l-16 69 -26 -64z"/>
<path d="M6146 5245 c-26 -30 -53 -55 -59 -55 -7 0 -36 11 -66 25 -30 14 -56
23 -59 21 -4 -4 13 -35 55 -102 13 -20 9 -26 -38 -78 -28 -31 -45 -56 -38 -56
8 0 41 7 74 15 47 11 62 12 68 2 5 -7 23 -36 41 -66 l33 -54 8 76 7 76 75 17
76 17 -63 28 c-34 16 -67 29 -71 29 -8 0 -4 95 6 143 2 9 2 17 1 17 -1 0 -24
-25 -50 -55z"/>
<path d="M5116 5605 c-10 -22 -22 -50 -27 -63 -9 -22 -14 -23 -80 -20 l-71 3
53 -47 52 -46 -22 -54 c-13 -29 -25 -59 -28 -67 -4 -7 19 3 51 23 31 20 60 36
65 36 4 0 29 -18 54 -40 25 -22 47 -40 50 -40 2 0 -3 30 -11 67 -8 37 -11 68
-6 70 5 2 34 19 64 38 l55 35 -46 0 c-97 0 -103 4 -120 78 l-15 67 -18 -40z"/>
<path d="M5166 4388 c2 -21 6 -53 8 -72 4 -34 4 -34 -66 -64 l-71 -29 39 -7
c21 -4 56 -12 77 -17 37 -10 37 -10 37 -62 0 -79 11 -84 48 -22 18 30 36 55
40 55 4 0 34 -7 67 -14 33 -8 61 -13 62 -12 1 1 -18 25 -43 54 l-45 52 35 60
c19 33 34 60 31 60 -2 0 -31 -12 -65 -26 l-61 -27 -49 54 -49 54 5 -37z"/>
</g>
</svg>
